<?xml version="1.0" encoding="utf-8"?>
<!-- Generator: Adobe Illustrator 24.3.0, SVG Export Plug-In . SVG Version: 6.00 Build 0)  -->
<!DOCTYPE svg PUBLIC "-//W3C//DTD SVG 1.1//EN" "http://www.w3.org/Graphics/SVG/1.1/DTD/svg11.dtd" [
	<!ENTITY st0 "fill:#00A0E9;">
	<!ENTITY st1 "fill:#FFFFFF;">
	<!ENTITY st2 "fill:#3E3A39;">
]>
<svg version="1.1" id="图层_1" xmlns="http://www.w3.org/2000/svg" xmlns:xlink="http://www.w3.org/1999/xlink" x="0px" y="0px"
	 viewBox="0 0 841.9 291.3" style="enable-background:new 0 0 841.9 291.3;" xml:space="preserve">
<g id="XMLID_30_">
	<g id="XMLID_2356_">
		<g id="XMLID_2357_">
			<path id="XMLID_2359_" style="&st0;" d="M240.5,182.8c42.1,14.1,51.6,14.8,51.6,14.8V46.7c0-25.8-20.9-46.7-46.8-46.7H46.8
				C20.9,0,0,20.9,0,46.7v198c0,25.8,20.9,46.7,46.8,46.7h198.5c25.8,0,46.8-20.9,46.8-46.7v-2c0,0-76-31.6-114.4-50
				c-25.7,31.6-59,50.8-93.4,50.8c-34.2,0-58.6-19.9-61.3-40.9v0.1c0,0-7.5-21.7,10.8-43.6c6.1-7.3,16.3-14.3,32.2-18.2
				c24.9-6.1,64.4,3.8,101.5,16c6.7-12.3,12.3-25.7,16.5-40.1H69.6v-11.5h58.9V84.5H57.2V72.9h71.4V43.4c0,0,0-5,5.1-5h28.8v34.5
				H233v11.5h-70.6v20.7H220c-5.5,22.5-13.9,43.2-24.4,61.4C213.1,172.9,228.8,178.9,240.5,182.8z"/>
			<path id="XMLID_2358_" style="&st0;" d="M292.1,242.6v2c0,25.8-20.9,46.7-46.8,46.7H46.8C20.9,291.3,0,270.4,0,244.6v-198
				C0,20.9,20.9,0,46.8,0h198.5c25.8,0,46.8,20.9,46.8,46.7v150.9V242.6z"/>
		</g>
	</g>
	<path id="XMLID_2352_" style="&st1;" d="M240.5,182.9c-11.7-3.9-27.4-9.9-44.8-16.2c10.5-18.2,18.9-38.9,24.4-61.4h-57.6V84.6H233
		V73.1h-70.5V38.6h-28.8c-5,0-5,5-5,5v29.5H57.3v11.5h71.3v20.7H69.7v11.5H184c-4.2,14.4-9.8,27.8-16.5,40.1
		c-37.1-12.2-76.6-22.1-101.5-16c-15.9,3.9-26.1,10.9-32.1,18.2c-27.6,33.5-7.8,84.3,50.5,84.3c34.5,0,67.7-19.2,93.4-50.7
		c38.4,18.4,114.3,50,114.3,50v-45C292.1,197.7,282.6,196.9,240.5,182.9z M78.9,224c-45.4,0-58.9-35.7-36.4-55.2
		c7.5-6.6,21.2-9.8,28.5-10.5c27-2.7,52,7.6,81.5,22C131.7,207.1,105.3,224,78.9,224z"/>
	<g id="XMLID_2318_">
		<g id="XMLID_2340_">
			<path id="XMLID_2350_" style="&st2;" d="M723,45.8H808v16.8h30.3V45.8v-3.1l0-0.1c0-4.5-3.5-8.2-7.9-8.2h-49.1V18.7h-31.7v15.7
				h-56.9v5.7v5.7v16.8H723V45.8z"/>
			<polygon id="XMLID_2349_" style="&st2;" points="539.2,20.1 508.1,93.7 532,93.7 532,181.2 558.1,181.2 558.1,65.1 548.6,65.1 
				568.3,20.1 			"/>
			<path id="XMLID_2348_" style="&st2;" d="M841.9,177.6l-9.6-32.6c-0.6-2.1-2.5-3.5-4.7-3.5h-25.3l7.3,24.7h-29.7v-47.9h58.3v-11.4
				h-58.3V84.4h58.3V73h-58.3H751h-58.3v11.4H751v22.5h-58.3v11.4H751v47.9h-58.3v11.4H841.9z"/>
			<path id="XMLID_2347_" style="&st2;" d="M600.6,77H578l17.6,55.4h26.7l-16.4-52C605,78.4,603,77,600.6,77z"/>
			<path id="XMLID_2346_" style="&st2;" d="M663.1,21.5H636v28.3h-66.8v11.4H636v101.9c-0.2,2.3-2.1,4.1-4.4,4.3h-13.8v11.8H653
				c5.6-0.2,10-4.8,10.1-10.6v-1.2V61.2h11V49.8h-11V21.5z"/>
			<path id="XMLID_2345_" style="&st2;" d="M459.8,84.7c0,0-14.4,56.2-111.2,85.1v13.9c0,0,122.5-23.1,145.4-110.6l-33.3,4.8
				L459.8,84.7z"/>
			<path id="XMLID_2344_" style="&st2;" d="M393.5,96.3c0,0,23.6,42.6,110.5,74.3v13.2c0,0-98.4-19.5-137.6-87.5H393.5z"/>
			<polygon id="XMLID_2343_" style="&st2;" points="488.6,84.7 359,84.7 359,73.1 494,73.1 			"/>
			<rect id="XMLID_2342_" x="349.6" y="42.8" style="&st2;" width="152.6" height="11.6"/>
			<path id="XMLID_2341_" style="&st2;" d="M414.9,19.2L414.9,19.2c-3,0-5.3,2.5-5.3,5.5v0v55.7h32.3V19.2H414.9z"/>
		</g>
		<path id="XMLID_2328_" style="&st2;" d="M408.5,259l4.5,13.6h12.6l-24.9-67.5h-9.6l-24.8,67.5h12.6l4.7-13.6H408.5z M396.3,222.5
			l9.3,28h-19L396.3,222.5z"/>
		<polygon id="XMLID_2327_" style="&st2;" points="465.4,205.1 465.4,272.6 506.3,272.6 506.3,263.4 477.6,263.4 477.6,205.1 		"/>
		<rect id="XMLID_2326_" x="550.9" y="205.1" style="&st2;" width="12.1" height="67.5"/>
		<path id="XMLID_2323_" style="&st2;" d="M638.5,205.1h-26.2v67.5h12.1v-25.9h14.1c13.1,0,22.2-8.5,22.2-20.8
			C660.7,213.6,651.6,205.1,638.5,205.1z M637.8,237.3h-13.4v-23.1h13.4c6.7,0,10.8,5.9,10.8,11.6
			C648.5,231.4,644.8,237.3,637.8,237.3z"/>
		<path id="XMLID_2320_" style="&st2;" d="M732,259l4.5,13.6h12.6l-24.9-67.5h-9.6l-24.8,67.5h12.6l4.7-13.6H732z M719.8,222.5
			l9.3,28h-19L719.8,222.5z"/>
		<polygon id="XMLID_2319_" style="&st2;" points="816.8,205.1 803.5,233.8 790.1,205.1 777,205.1 797.4,244.8 797.4,272.6 
			809.5,272.6 809.5,244.8 809.5,244.7 829.9,205.1 		"/>
	</g>
</g>
</svg>
