<?xml version="1.0" encoding="utf-8"?>
<!-- Generator: Adobe Illustrator 24.3.0, SVG Export Plug-In . SVG Version: 6.00 Build 0)  -->
<svg version="1.1" id="图层_1" xmlns="http://www.w3.org/2000/svg" xmlns:xlink="http://www.w3.org/1999/xlink" x="0px" y="0px"
	 viewBox="0 0 341.8 76.2" style="enable-background:new 0 0 341.8 76.2;" xml:space="preserve">
<style type="text/css">
	.st0{fill:none;stroke:#FFFFFF;stroke-width:0.25;stroke-miterlimit:10;stroke-dasharray:1.99,0.99;}
	.st1{fill:#09BB07;}
	.st2{fill:#494949;}
</style>
<path class="st0" d="M121.6,129.2"/>
<path class="st0" d="M121.6-57.5"/>
<path id="XMLID_81_" class="st1" d="M31.4,48.2c-0.4,0.2-0.8,0.3-1.3,0.3c-1.1,0-2-0.6-2.5-1.5l-0.2-0.4l-7.9-17.2
	c-0.1-0.2-0.1-0.4-0.1-0.6c0-0.8,0.6-1.4,1.4-1.4c0.3,0,0.6,0.1,0.9,0.3l9.3,6.6c0.7,0.4,1.5,0.7,2.4,0.7c0.5,0,1-0.1,1.5-0.3
	l43.6-19.4C70.6,6,57.7,0,43.2,0C19.3,0,0,16.1,0,36c0,10.8,5.8,20.6,14.9,27.2c0.7,0.5,1.2,1.4,1.2,2.3c0,0.3-0.1,0.6-0.2,0.9
	c-0.7,2.7-1.9,7.1-1.9,7.3c-0.1,0.3-0.2,0.7-0.2,1.1c0,0.8,0.6,1.4,1.4,1.4c0.3,0,0.6-0.1,0.8-0.3l9.4-5.5c0.7-0.4,1.5-0.7,2.3-0.7
	c0.4,0,0.9,0.1,1.3,0.2c4.4,1.3,9.2,2,14.1,2c23.8,0,43.2-16.1,43.2-36c0-6-1.8-11.7-4.9-16.7L31.7,48L31.4,48.2z"/>
<rect id="XMLID_80_" x="190.2" y="25.6" class="st2" width="32.4" height="2.9"/>
<rect id="XMLID_79_" x="190.2" y="34.6" class="st2" width="32.4" height="3.1"/>
<path id="XMLID_76_" class="st2" d="M221.8,61.5V43.9H191v17.5H221.8z M194.2,46.8h24.5v11.7h-24.5V46.8z"/>
<path id="XMLID_75_" class="st2" d="M181.3,63.3V23c1.8-4,3.5-8.2,4.8-12.5l-2.9-1.7c-2.9,10.1-7,19.2-12.3,26.9l1.7,3
	c1.8-2.7,3.7-5.9,5.6-9.2v33.9H181.3z"/>
<path id="XMLID_74_" class="st2" d="M299,63.3V23c1.8-4,3.5-8.2,4.8-12.5l-2.9-1.7c-2.9,10.1-7,19.2-12.3,26.9l1.7,3
	c1.8-2.7,3.7-5.9,5.6-9.2v33.9H299z"/>
<path id="XMLID_73_" class="st2" d="M226,16.3h-19l2-1.2l0.1,0l0-0.1c-0.2-0.5-0.8-1.8-1.5-3.2c-0.6-1.3-1.2-2.5-1.5-3.2l0-0.1
	l-2.9,1.7l0,0.1c1,1.9,1.9,3.7,2.7,5.4c0.1,0.2,0.2,0.4,0.2,0.5h-19v3.1H226V16.3z"/>
<polygon id="XMLID_72_" class="st2" points="142.4,13.9 139.5,13.9 139.5,24.1 134.1,24.1 134.1,9.6 131.2,9.6 131.2,24.1 
	125.4,24.1 125.4,13.9 122.5,13.9 122.5,27 142.4,27 "/>
<rect id="XMLID_71_" x="123.4" y="32.7" class="st2" width="17.6" height="2.9"/>
<path id="XMLID_70_" class="st2" d="M127.3,46.9v-2.6h8.9v6.5c-0.1,2.3-0.2,3-1,4l0,0l1.8,3.1l0.1-0.1c1.6-1.3,4.2-3.5,7.9-6.8
	l0.1,0l-1.4-2.4l-0.1-0.1l-4.5,3.8V41.3h-14.9v4.4c0.4,6-1.1,10.3-4.5,12.8l-0.1,0l1.6,2.8l0.1,0.1l0.1-0.1
	C125.6,58,127.6,53,127.3,46.9z"/>
<path id="XMLID_69_" class="st2" d="M108.2,23.3l1.8,3c4.5-4.5,8.4-9.9,11.2-15.8L118.5,9C115.7,14.7,112.1,19.6,108.2,23.3z"/>
<path id="XMLID_68_" class="st2" d="M107.4,41.6l1.6,2.8l0.1,0.1l0.1-0.1c1.7-2,3.4-4.1,5-6.3v25.2h2.9v-30c1.3-2.3,2.6-4.9,3.8-7.8
	l0-0.1l-2.8-1.6l0,0.1C115.3,30.6,111.8,36.6,107.4,41.6L107.4,41.6z"/>
<path id="XMLID_65_" class="st2" d="M163.7,22.5v-2.9h-12.9l0,0c1.1-3.4,2.4-7.3,2.8-10.6l-3,0c-1.9,8.8-4.8,16.5-8.5,22.5l1.8,3.2
	l1.3-2.7c0.5-0.9,0.9-1.6,1.2-2.2c0.9,7.8,2.5,14.1,4.7,18.7c-2.1,3.7-5.4,7.5-9.8,11.4l-0.1,0l1.7,2.9l0.1,0.1l0.1-0.1
	c4.6-4.3,7.8-8.1,9.5-11.2c1.9,3.4,5.2,7.5,8.9,11.4l0.1,0.1l1.7-3l0-0.1l-0.1,0c-4-3.9-7.2-7.9-9-11.3c3.3-6,5.3-14.8,6.1-26.2
	H163.7z M153,45c-1.9-4.9-3.3-11.6-4.2-19.9c0.3-0.9,0.7-1.8,1.1-2.6h7.8C157.1,31.9,155.5,39.5,153,45z"/>
<path id="XMLID_35_" class="st2" d="M284.8,19.4v-3.1h-24.7V8.4h-3.2v7.9h-24.5v3.1h24.5v10.3h-0.5H241l0,2.8c0,0,2.4,5.5,7.4,11.5
	c2,2.4,4.3,4.9,7.3,7.4c-5.6,3.4-12.5,6.7-22.2,8.6l1.8,3.2c0,0,11.5-2.4,22.9-9.8c1.5,1,8.6,6.6,21.8,9.8c0,0,0,0,0,0l0.1,0
	l1.3-2.4c0,0-3.4-0.9-8.6-2.9c-3.6-1.4-8.1-3.5-12.4-6.4c6.4-4.7,12.1-11.5,15.5-20.2l-2.6-1.5h-13.3h0V19.4H284.8z M272.3,32.4
	c0,0-3.2,9.1-14.1,16.9c-5.2-4-10.6-9.8-14-16.9H272.3z"/>
<path id="XMLID_34_" class="st2" d="M324.6,59.3c-0.6,0-1.2,0-1.8,0v3.1c1.2,0,2.1,0,2.7,0c3.1,0,4.7-0.7,6.1-2
	c1.3-1.3,1.9-3.2,1.8-5.8V25.5h8.4v-3.1h-8.4V9h-3.1v13.4h-25.8v3.1h25.8v29.1C330.2,57.8,328.3,59.3,324.6,59.3z"/>
<path id="XMLID_33_" class="st2" d="M317.6,48.9l3.1-1.8c-1.7-3.4-3.9-7.9-6.6-13.4l-2.8,1.7C313.1,39.1,315.2,43.6,317.6,48.9z"/>
</svg>
